<svg width="24" height="55" viewBox="0 0 24 55" fill="none" xmlns="http://www.w3.org/2000/svg">
<path d="M9.17005 4.71L3.07005 16.3C1.62005 19.05 4.55005 22.04 7.33005 20.65L10.57 19.03C11.47 18.58 12.53 18.58 13.43 19.03L16.67 20.65C19.45 22.04 22.37 19.05 20.93 16.3L14.83 4.71C13.63 2.43 10.37 2.43 9.17005 4.71Z" stroke="white" stroke-width="2" stroke-linecap="round" stroke-linejoin="round"/>
<path d="M9.17005 40.29L3.07005 28.7C1.62005 25.95 4.55005 22.96 7.33005 24.35L10.57 25.97C11.47 26.42 12.53 26.42 13.43 25.97L16.67 24.35C19.45 22.96 22.37 25.95 20.93 28.7L14.83 40.29C13.63 42.57 10.37 42.57 9.17005 40.29Z" stroke="white" stroke-width="2" stroke-linecap="round" stroke-linejoin="round"/>
</svg>
